<?xml version="1.0" encoding="UTF-8" standalone="no"?>
<!-- Created with Inkscape (http://www.inkscape.org/) -->

<svg
   width="210mm"
   height="297mm"
   viewBox="0 0 210 297"
   version="1.1"
   id="svg1"
   xmlns="http://www.w3.org/2000/svg"
   xmlns:svg="http://www.w3.org/2000/svg">
  <defs
     id="defs1" />
  <g
     id="layer1">
    <path
       id="path1"
       style="fill:#ffffff"
       d="M 104.60912 88.654537 L 103.79521 88.825586 L 102.98183 88.996635 L 102.13899 89.411597 L 101.29614 89.826558 L 100.53753 90.586202 L 99.778406 91.345329 L 92.606234 105.69742 L 85.434062 120.05004 L 85.344145 119.99423 L 85.254744 119.93893 L 85.331226 120.13892 L 85.407707 120.33839 L 85.253711 120.24331 L 85.099715 120.14822 L 85.17723 120.2738 L 85.254744 120.39937 L 85.12297 120.68979 L 84.990678 120.98021 L 84.858903 120.92957 L 84.727128 120.87893 L 83.158232 124.03429 L 81.589852 127.18965 L 81.618791 127.29404 L 81.648246 127.39843 L 74.456954 141.79806 L 67.265662 156.19718 L 67.047587 156.83694 L 66.828996 157.47721 L 66.828996 158.64045 L 66.828996 159.8042 L 67.046554 160.44447 L 67.264111 161.08422 L 67.540063 161.63665 L 67.816532 162.18907 L 68.571525 162.99005 L 69.326518 163.79104 L 70.122335 164.20962 L 70.917635 164.62768 L 71.661776 164.80338 L 72.4054 164.97908 L 85.484705 164.98063 L 98.563493 164.98269 L 98.533521 180.88767 L 98.503031 196.79316 L 98.620337 196.91046 L 98.738159 197.02828 L 98.738159 197.50732 L 98.738159 197.98636 L 98.923678 198.61837 L 99.109196 199.25037 L 99.472998 199.9387 L 99.8368 200.62651 L 100.53753 201.335 L 101.23775 202.04348 L 101.9483 202.41969 L 102.65885 202.79589 L 103.28517 202.97004 L 103.91097 203.14316 L 104.95742 203.07753 L 106.00387 203.01241 L 106.7015 202.83775 L 107.39913 202.66308 L 108.09624 202.29773 L 108.79388 201.93238 L 109.56489 201.17015 L 110.33538 200.40741 L 117.7463 185.57472 L 125.1567 170.74203 L 125.24507 170.68364 L 125.33344 170.62576 L 134.12721 153.02167 L 142.92099 135.41757 L 143.09152 134.69514 L 143.26154 133.97218 L 143.26361 133.21151 L 143.26567 132.45031 L 143.08842 131.75682 L 142.91169 131.06332 L 142.57011 130.36517 L 142.22904 129.66702 L 141.70298 129.06912 L 141.17691 128.47071 L 140.50822 128.02629 L 139.83953 127.58188 L 139.08195 127.28629 L 138.32437 126.9907 L 124.95465 126.95918 L 111.58492 126.92714 L 111.61489 111.08314 L 111.64538 95.239148 L 111.52808 95.121326 L 111.41025 95.003503 L 111.41025 94.466069 L 111.41025 93.92915 L 111.22474 93.297148 L 111.03922 92.665145 L 110.67542 91.976815 L 110.31161 91.289001 L 109.60106 90.567082 L 108.89051 89.845679 L 108.02855 89.420898 L 107.1671 88.996635 L 106.3532 88.825586 L 105.53929 88.654537 L 105.07421 88.654537 L 104.60912 88.654537 z M 85.019617 120.41746 L 85.019617 120.47533 L 85.019617 120.53373 L 85.077494 120.53373 L 85.135889 120.53373 L 85.135889 120.47533 L 85.135889 120.41746 L 85.077494 120.41746 L 85.019617 120.41746 z M 84.903345 120.65 L 84.903345 120.70839 L 84.903345 120.76627 L 84.961222 120.76627 L 85.019617 120.76627 L 85.019617 120.70839 L 85.019617 120.65 L 84.961222 120.65 L 84.903345 120.65 z M 84.787073 121.1156 L 84.84495 121.1156 L 84.903345 121.1156 L 84.903345 121.17348 L 84.903345 121.23188 L 84.84495 121.23188 L 84.787073 121.23188 L 84.787073 121.17348 L 84.787073 121.1156 z M 84.670801 121.34815 L 84.728678 121.34815 L 84.787073 121.34815 L 84.787073 121.40654 L 84.787073 121.46442 L 84.728678 121.46442 L 84.670801 121.46442 L 84.670801 121.40654 L 84.670801 121.34815 z M 84.554529 121.58069 L 84.612406 121.58069 L 84.670801 121.58069 L 84.670801 121.63909 L 84.670801 121.69748 L 84.612406 121.69748 L 84.554529 121.69748 L 84.554529 121.63909 L 84.554529 121.58069 z M 98.491663 122.45351 L 98.500964 122.56978 L 98.509749 122.68605 L 98.504582 127.94309 L 98.500964 133.20014 L 98.619303 133.27352 L 98.737642 133.3469 L 98.737642 133.84248 L 98.737642 134.33805 L 98.923161 134.97006 L 99.108679 135.60206 L 99.475582 136.29866 L 99.841968 136.99474 L 100.5396 137.70219 L 101.23723 138.41016 L 101.89404 138.78223 L 102.55033 139.1543 L 103.4526 139.38529 L 104.35539 139.61628 L 115.43947 139.61628 L 126.52354 139.61628 L 126.51786 139.70362 L 126.51217 139.79095 L 119.0842 154.62674 L 111.65623 169.46252 L 111.64745 169.34625 L 111.63815 169.22998 L 111.64228 163.97294 L 111.64642 158.71589 L 111.52808 158.64251 L 111.40922 158.56913 L 111.40922 158.07356 L 111.40922 157.57798 L 111.2237 156.94598 L 111.0387 156.31397 L 110.6718 155.61789 L 110.3049 154.92129 L 109.60726 154.21384 L 108.90963 153.50588 L 108.25334 153.13381 L 107.59653 152.76174 L 106.69426 152.53074 L 105.79199 152.29975 L 94.707397 152.29975 L 83.623319 152.29975 L 83.629521 152.21241 L 83.636239 152.12508 L 91.063692 137.28929 L 98.491663 122.45351 z " />
  </g>
</svg>
